<svg width="491" height="82" viewBox="0 0 491 82" fill="none" xmlns="http://www.w3.org/2000/svg">
<path d="M106.996 29.3852C106.996 31.6519 106.369 33.3585 105.116 34.5052C103.889 35.6252 102.116 36.1852 99.7955 36.1852H95.9955V33.1452H100.196C101.182 33.1452 101.982 32.8519 102.596 32.2652C103.209 31.6785 103.516 30.9719 103.516 30.1452V11.1852H97.4755V8.18521H106.996V29.3852ZM130.491 36.1852C130.144 36.1852 129.758 36.0785 129.331 35.8652C128.931 35.6519 128.584 35.3585 128.291 34.9852C127.678 35.7852 126.864 36.1852 125.851 36.1852H123.091C121.064 36.1852 119.584 35.7852 118.651 34.9852C117.744 34.1585 117.291 32.7585 117.291 30.7852V29.9852C117.291 25.8519 119.238 23.7852 123.131 23.7852H127.291V21.7852C127.291 20.9585 127.038 20.3185 126.531 19.8652C126.024 19.4119 125.278 19.1852 124.291 19.1852H118.891V16.1852H123.891C126.211 16.1852 127.918 16.6919 129.011 17.7052C130.131 18.7185 130.691 20.3452 130.691 22.5852V32.1852C130.691 32.5852 130.838 32.8919 131.131 33.1052C131.451 33.2919 131.971 33.3852 132.691 33.3852V36.1852H130.491ZM125.451 33.1852C126.251 33.1852 126.758 32.9985 126.971 32.6252C127.184 32.2519 127.291 31.7719 127.291 31.1852V26.7852H123.091C122.398 26.7852 121.824 27.0119 121.371 27.4652C120.918 27.9185 120.691 28.4919 120.691 29.1852V31.1852C120.691 31.8785 120.851 32.3852 121.171 32.7052C121.491 33.0252 121.998 33.1852 122.691 33.1852H125.451ZM152.98 36.1852L147.5 26.3052L146.38 27.6252V36.1852H142.98V8.18521H146.38V23.1452L152.38 16.1852H156.66L149.9 23.9052L156.94 36.1852H152.98ZM176.995 35.2652C176.115 35.8785 175.048 36.1852 173.795 36.1852H173.235C171.075 36.1852 169.461 35.6785 168.395 34.6652C167.355 33.6519 166.835 32.0252 166.835 29.7852V16.1852H170.235V30.5852C170.235 31.3852 170.461 32.0252 170.915 32.5052C171.395 32.9585 172.035 33.1852 172.835 33.1852H174.195C175.048 33.1852 175.675 32.9719 176.075 32.5452C176.501 32.1185 176.741 31.6385 176.795 31.1052V16.1852H180.195V36.1852H176.995V35.2652ZM205.945 29.7852C205.945 32.0252 205.385 33.6519 204.265 34.6652C203.172 35.6785 201.465 36.1852 199.145 36.1852H192.105V8.18521H195.505V16.9852C196.305 16.4519 197.305 16.1852 198.505 16.1852H199.145C201.492 16.1852 203.212 16.6919 204.305 17.7052C205.398 18.6919 205.945 20.3185 205.945 22.5852V29.7852ZM198.105 19.1852C197.225 19.1852 196.572 19.4252 196.145 19.9052C195.718 20.3585 195.505 20.8519 195.505 21.3852V33.1852H199.545C200.532 33.1852 201.278 32.9585 201.785 32.5052C202.292 32.0519 202.545 31.4119 202.545 30.5852V21.7852C202.545 20.9585 202.292 20.3185 201.785 19.8652C201.278 19.4119 200.532 19.1852 199.545 19.1852H198.105ZM248.619 36.1852V11.0652L244.339 26.7852H241.019L236.739 11.0652V36.1852H233.539V8.18521H239.179L242.819 22.5052L246.419 8.18521H251.939V36.1852H248.619ZM263.835 11.7852V8.18521H267.635V11.7852H263.835ZM264.035 36.1852V16.1852H267.435V36.1852H264.035ZM285.739 36.1852C283.393 36.1852 281.673 35.6919 280.579 34.7052C279.486 33.6919 278.939 32.0519 278.939 29.7852V22.5852C278.939 20.2919 279.433 18.6519 280.419 17.6652C281.406 16.6785 283.046 16.1852 285.339 16.1852H286.419C288.313 16.1852 289.739 16.7185 290.699 17.7852C291.686 18.8252 292.179 20.3585 292.179 22.3852V27.5852H282.339V30.5852C282.339 31.4119 282.593 32.0519 283.099 32.5052C283.606 32.9585 284.353 33.1852 285.339 33.1852H290.899V36.1852H285.739ZM288.859 24.5852V21.5852C288.859 20.8919 288.633 20.3185 288.179 19.8652C287.726 19.4119 287.153 19.1852 286.459 19.1852H284.939C283.979 19.1852 283.299 19.4119 282.899 19.8652C282.526 20.2919 282.339 20.9319 282.339 21.7852V24.5852H288.859ZM303.472 16.1852H306.672V17.2652C307.552 16.5452 308.619 16.1852 309.872 16.1852H312.792V19.3852H309.472C308.592 19.3852 307.939 19.6785 307.512 20.2652C307.085 20.8519 306.872 21.4252 306.872 21.9852V36.1852H303.472V16.1852ZM324.572 33.2252H332.812V36.1852H320.892V32.9852L329.572 19.1452H321.692V16.1852H333.212V19.7452L324.572 33.2252ZM350.325 36.1852C347.979 36.1852 346.259 35.6919 345.165 34.7052C344.072 33.6919 343.525 32.0519 343.525 29.7852V22.5852C343.525 20.2919 344.019 18.6519 345.005 17.6652C345.992 16.6785 347.632 16.1852 349.925 16.1852H351.005C352.899 16.1852 354.325 16.7185 355.285 17.7852C356.272 18.8252 356.765 20.3585 356.765 22.3852V27.5852H346.925V30.5852C346.925 31.4119 347.179 32.0519 347.685 32.5052C348.192 32.9585 348.939 33.1852 349.925 33.1852H355.485V36.1852H350.325ZM353.445 24.5852V21.5852C353.445 20.8919 353.219 20.3185 352.765 19.8652C352.312 19.4119 351.739 19.1852 351.045 19.1852H349.525C348.565 19.1852 347.885 19.4119 347.485 19.8652C347.112 20.2919 346.925 20.9319 346.925 21.7852V24.5852H353.445ZM367.858 11.7852V8.18521H371.658V11.7852H367.858ZM366.698 39.9852C367.125 39.9852 367.458 39.8652 367.698 39.6252C367.965 39.4119 368.098 39.1319 368.098 38.7852V16.1852H371.498V38.5852C371.498 39.9452 371.111 41.0119 370.338 41.7852C369.565 42.5852 368.565 42.9852 367.338 42.9852H363.058V39.9852H366.698ZM389.763 36.1852C387.416 36.1852 385.696 35.6919 384.603 34.7052C383.509 33.6919 382.963 32.0519 382.963 29.7852V22.5852C382.963 20.2919 383.456 18.6519 384.443 17.6652C385.429 16.6785 387.069 16.1852 389.363 16.1852H390.443C392.336 16.1852 393.763 16.7185 394.723 17.7852C395.709 18.8252 396.203 20.3585 396.203 22.3852V27.5852H386.363V30.5852C386.363 31.4119 386.616 32.0519 387.123 32.5052C387.629 32.9585 388.376 33.1852 389.363 33.1852H394.923V36.1852H389.763ZM392.883 24.5852V21.5852C392.883 20.8919 392.656 20.3185 392.203 19.8652C391.749 19.4119 391.176 19.1852 390.483 19.1852H388.963C388.003 19.1852 387.323 19.4119 386.923 19.8652C386.549 20.2919 386.363 20.9319 386.363 21.7852V24.5852H392.883ZM417.496 36.1852L412.016 26.3052L410.896 27.6252V36.1852H407.496V8.18521H410.896V23.1452L416.896 16.1852H421.176L414.416 23.9052L421.456 36.1852H417.496Z" fill="black"/>
<path d="M107.276 67.304C107.246 69.084 106.726 70.469 105.716 71.459C104.716 72.449 103.396 72.944 101.756 72.944C99.8755 72.944 98.3755 72.369 97.2555 71.219C96.1355 70.059 95.5755 68.704 95.5755 67.154C95.5755 65.604 96.1355 64.264 97.2555 63.134C98.3755 61.994 99.8205 61.424 101.591 61.424C102.551 61.424 103.441 61.604 104.261 61.964C105.091 62.314 105.901 62.854 106.691 63.584L105.701 64.529C105.091 63.939 104.431 63.489 103.721 63.179C103.011 62.859 102.281 62.699 101.531 62.699C100.781 62.699 100.036 62.899 99.2955 63.299C98.5555 63.699 97.9755 64.239 97.5555 64.919C97.1355 65.599 96.9255 66.334 96.9255 67.124C96.9255 68.354 97.3855 69.429 98.3055 70.349C99.2355 71.259 100.396 71.714 101.786 71.714C102.816 71.714 103.706 71.434 104.456 70.874C105.206 70.304 105.666 69.529 105.836 68.549H102.416V67.304H107.276ZM119.867 72.674H118.247L114.377 67.664H113.927V72.674H112.637V61.694H114.887C116.087 61.694 116.912 61.749 117.362 61.859C117.812 61.959 118.202 62.134 118.532 62.384C118.862 62.634 119.122 62.959 119.312 63.359C119.502 63.749 119.597 64.184 119.597 64.664C119.597 65.574 119.287 66.304 118.667 66.854C118.047 67.394 117.152 67.664 115.982 67.664L119.867 72.674ZM113.927 66.404H115.682C116.562 66.414 117.212 66.284 117.632 66.014C118.052 65.734 118.262 65.294 118.262 64.694C118.262 64.084 118.057 63.644 117.647 63.374C117.237 63.094 116.597 62.954 115.727 62.954H113.927V66.404ZM134.878 72.674H133.513L131.818 68.999H127.288L125.608 72.674H124.183L129.373 61.259H129.763L134.878 72.674ZM131.233 67.694L129.568 63.989L127.888 67.694H131.233ZM139.791 61.694H142.041C143.321 61.694 144.161 61.744 144.561 61.844C144.961 61.944 145.326 62.124 145.656 62.384C145.996 62.644 146.261 62.969 146.451 63.359C146.641 63.749 146.736 64.189 146.736 64.679C146.736 65.169 146.641 65.609 146.451 65.999C146.271 66.389 146.006 66.714 145.656 66.974C145.316 67.224 144.896 67.404 144.396 67.514C143.896 67.614 143.011 67.664 141.741 67.664H141.081V72.674H139.791V61.694ZM141.081 66.419H142.791C143.801 66.439 144.486 66.279 144.846 65.939C145.216 65.599 145.401 65.174 145.401 64.664C145.401 63.524 144.561 62.954 142.881 62.954H141.081V66.419ZM160.013 72.674H158.723V67.469H153.458V72.674H152.153V61.694H153.458V66.209H158.723V61.694H160.013V72.674ZM167.048 72.674H165.758V61.694H167.048V72.674ZM183.096 70.664C181.916 72.184 180.296 72.944 178.236 72.944C176.496 72.944 175.071 72.394 173.961 71.294C172.851 70.194 172.296 68.804 172.296 67.124C172.296 66.084 172.551 65.124 173.061 64.244C173.581 63.364 174.296 62.674 175.206 62.174C176.116 61.674 177.096 61.424 178.146 61.424C179.206 61.424 180.151 61.629 180.981 62.039C181.821 62.439 182.521 63.029 183.081 63.809L182.091 64.574C181.051 63.314 179.766 62.684 178.236 62.684C176.986 62.684 175.906 63.124 174.996 64.004C174.096 64.884 173.646 65.964 173.646 67.244C173.646 68.514 174.086 69.579 174.966 70.439C175.856 71.289 177.006 71.714 178.416 71.714C179.826 71.714 181.051 71.109 182.091 69.899L183.096 70.664ZM195.744 61.694H198.084C199.664 61.694 200.814 61.814 201.534 62.054C202.254 62.284 202.874 62.649 203.394 63.149C203.924 63.639 204.329 64.239 204.609 64.949C204.889 65.659 205.029 66.479 205.029 67.409C205.029 68.339 204.819 69.219 204.399 70.049C203.989 70.869 203.399 71.514 202.629 71.984C201.869 72.444 200.754 72.674 199.284 72.674H195.744V61.694ZM196.989 71.444H198.129C199.399 71.444 200.324 71.379 200.904 71.249C201.484 71.119 201.989 70.869 202.419 70.499C202.849 70.129 203.174 69.679 203.394 69.149C203.624 68.609 203.739 67.989 203.739 67.289C203.739 66.589 203.604 65.944 203.334 65.354C203.074 64.754 202.699 64.269 202.209 63.899C201.719 63.519 201.144 63.269 200.484 63.149C199.824 63.019 198.879 62.954 197.649 62.954H196.989V71.444ZM216.811 62.969H211.711V66.119H216.766V67.379H211.711V71.399H216.766V72.674H210.421V61.694H216.811V62.969ZM226.178 64.109C225.778 63.569 225.438 63.209 225.158 63.029C224.878 62.839 224.548 62.744 224.168 62.744C223.798 62.744 223.483 62.864 223.223 63.104C222.973 63.344 222.848 63.654 222.848 64.034C222.848 64.404 222.968 64.729 223.208 65.009C223.448 65.289 223.998 65.749 224.858 66.389C225.728 67.019 226.363 67.614 226.763 68.174C227.163 68.734 227.363 69.324 227.363 69.944C227.363 70.754 227.048 71.459 226.418 72.059C225.798 72.649 225.073 72.944 224.243 72.944C222.783 72.944 221.638 72.129 220.808 70.499L221.903 69.869C222.553 71.079 223.283 71.684 224.093 71.684C224.613 71.684 225.058 71.519 225.428 71.189C225.798 70.859 225.983 70.474 225.983 70.034C225.983 69.594 225.828 69.179 225.518 68.789C225.208 68.389 224.673 67.904 223.913 67.334C223.153 66.754 222.628 66.314 222.338 66.014C222.058 65.714 221.853 65.394 221.723 65.054C221.593 64.714 221.528 64.374 221.528 64.034C221.528 63.304 221.778 62.689 222.278 62.189C222.788 61.679 223.443 61.424 224.243 61.424C224.863 61.424 225.403 61.584 225.863 61.904C226.323 62.214 226.773 62.679 227.213 63.299L226.178 64.109ZM234.058 72.674H232.768V61.694H234.058V72.674ZM251.082 67.304C251.052 69.084 250.532 70.469 249.522 71.459C248.522 72.449 247.202 72.944 245.562 72.944C243.682 72.944 242.182 72.369 241.062 71.219C239.942 70.059 239.382 68.704 239.382 67.154C239.382 65.604 239.942 64.264 241.062 63.134C242.182 61.994 243.627 61.424 245.397 61.424C246.357 61.424 247.247 61.604 248.067 61.964C248.897 62.314 249.707 62.854 250.497 63.584L249.507 64.529C248.897 63.939 248.237 63.489 247.527 63.179C246.817 62.859 246.087 62.699 245.337 62.699C244.587 62.699 243.842 62.899 243.102 63.299C242.362 63.699 241.782 64.239 241.362 64.919C240.942 65.599 240.732 66.334 240.732 67.124C240.732 68.354 241.192 69.429 242.112 70.349C243.042 71.259 244.202 71.714 245.592 71.714C246.622 71.714 247.512 71.434 248.262 70.874C249.012 70.304 249.472 69.529 249.642 68.549H246.222V67.304H251.082ZM265.068 72.674H264.678L257.718 64.709V72.674H256.398V61.694H256.788L263.793 69.764V61.694H265.068V72.674ZM277.392 62.969H272.292V66.119H277.347V67.379H272.292V71.399H277.347V72.674H271.002V61.694H277.392V62.969ZM289.819 72.674H288.199L284.329 67.664H283.879V72.674H282.589V61.694H284.839C286.039 61.694 286.864 61.749 287.314 61.859C287.764 61.959 288.154 62.134 288.484 62.384C288.814 62.634 289.074 62.959 289.264 63.359C289.454 63.749 289.549 64.184 289.549 64.664C289.549 65.574 289.239 66.304 288.619 66.854C287.999 67.394 287.104 67.664 285.934 67.664L289.819 72.674ZM283.879 66.404H285.634C286.514 66.414 287.164 66.284 287.584 66.014C288.004 65.734 288.214 65.294 288.214 64.694C288.214 64.084 288.009 63.644 287.599 63.374C287.189 63.094 286.549 62.954 285.679 62.954H283.879V66.404Z" fill="black"/>
<path d="M318.369 51.9932L307.949 81.1549H304.854L315.274 51.9932H318.369Z" fill="black"/>
<path d="M343.273 61.694L340.123 72.944H339.748L336.628 64.739L333.448 72.944H333.088L329.998 61.694H331.333L333.448 69.464L336.448 61.694H336.808L339.778 69.479L341.938 61.694H343.273ZM354.932 62.969H349.832V66.119H354.887V67.379H349.832V71.399H354.887V72.674H348.542V61.694H354.932V62.969ZM364.659 66.659C365.359 66.919 365.884 67.289 366.234 67.769C366.594 68.249 366.774 68.819 366.774 69.479C366.774 70.399 366.439 71.164 365.769 71.774C365.109 72.374 364.244 72.674 363.174 72.674H360.099V61.694H362.334C363.494 61.694 364.374 61.934 364.974 62.414C365.584 62.884 365.889 63.559 365.889 64.439C365.889 65.399 365.479 66.139 364.659 66.659ZM361.374 66.194H361.884C362.784 66.194 363.454 66.054 363.894 65.774C364.344 65.494 364.569 65.049 364.569 64.439C364.569 63.449 363.884 62.954 362.514 62.954H361.374V66.194ZM361.374 71.414H362.604C363.374 71.414 363.934 71.339 364.284 71.189C364.634 71.039 364.914 70.809 365.124 70.499C365.334 70.189 365.439 69.874 365.439 69.554C365.439 69.234 365.374 68.954 365.244 68.714C365.124 68.464 364.939 68.244 364.689 68.054C364.449 67.864 364.149 67.724 363.789 67.634C363.439 67.534 362.799 67.484 361.869 67.484H361.374V71.414ZM379.433 61.694H381.773C383.353 61.694 384.503 61.814 385.223 62.054C385.943 62.284 386.563 62.649 387.083 63.149C387.613 63.639 388.018 64.239 388.298 64.949C388.578 65.659 388.718 66.479 388.718 67.409C388.718 68.339 388.508 69.219 388.088 70.049C387.678 70.869 387.088 71.514 386.318 71.984C385.558 72.444 384.443 72.674 382.973 72.674H379.433V61.694ZM380.678 71.444H381.818C383.088 71.444 384.013 71.379 384.593 71.249C385.173 71.119 385.678 70.869 386.108 70.499C386.538 70.129 386.863 69.679 387.083 69.149C387.313 68.609 387.428 67.989 387.428 67.289C387.428 66.589 387.293 65.944 387.023 65.354C386.763 64.754 386.388 64.269 385.898 63.899C385.408 63.519 384.833 63.269 384.173 63.149C383.513 63.019 382.568 62.954 381.338 62.954H380.678V71.444ZM400.5 62.969H395.4V66.119H400.455V67.379H395.4V71.399H400.455V72.674H394.11V61.694H400.5V62.969ZM414.622 61.694L409.837 72.944H409.492L404.782 61.694H406.162L409.672 70.139L413.242 61.694H414.622ZM426.074 62.969H420.974V66.119H426.029V67.379H420.974V71.399H426.029V72.674H419.684V61.694H426.074V62.969ZM436.656 72.674H431.211V61.694H432.516V71.429H436.656V72.674ZM446.89 61.424C447.96 61.424 448.945 61.679 449.845 62.189C450.745 62.689 451.45 63.384 451.96 64.274C452.48 65.164 452.74 66.134 452.74 67.184C452.74 68.224 452.485 69.189 451.975 70.079C451.465 70.969 450.765 71.669 449.875 72.179C448.985 72.689 448.015 72.944 446.965 72.944C445.925 72.944 444.955 72.694 444.055 72.194C443.155 71.684 442.45 70.989 441.94 70.109C441.43 69.219 441.175 68.254 441.175 67.214C441.175 66.164 441.43 65.194 441.94 64.304C442.45 63.404 443.145 62.699 444.025 62.189C444.915 61.679 445.87 61.424 446.89 61.424ZM446.935 71.684C448.185 71.684 449.24 71.259 450.1 70.409C450.97 69.559 451.405 68.494 451.405 67.214C451.405 65.934 450.965 64.859 450.085 63.989C449.215 63.119 448.165 62.684 446.935 62.684C445.675 62.684 444.62 63.124 443.77 64.004C442.93 64.874 442.51 65.939 442.51 67.199C442.51 68.449 442.945 69.509 443.815 70.379C444.685 71.249 445.725 71.684 446.935 71.684ZM458.177 61.694H460.427C461.707 61.694 462.547 61.744 462.947 61.844C463.347 61.944 463.712 62.124 464.042 62.384C464.382 62.644 464.647 62.969 464.837 63.359C465.027 63.749 465.122 64.189 465.122 64.679C465.122 65.169 465.027 65.609 464.837 65.999C464.657 66.389 464.392 66.714 464.042 66.974C463.702 67.224 463.282 67.404 462.782 67.514C462.282 67.614 461.397 67.664 460.127 67.664H459.467V72.674H458.177V61.694ZM459.467 66.419H461.177C462.187 66.439 462.872 66.279 463.232 65.939C463.602 65.599 463.787 65.174 463.787 64.664C463.787 63.524 462.947 62.954 461.267 62.954H459.467V66.419ZM476.959 62.969H471.859V66.119H476.914V67.379H471.859V71.399H476.914V72.674H470.569V61.694H476.959V62.969ZM489.386 72.674H487.766L483.896 67.664H483.446V72.674H482.156V61.694H484.406C485.606 61.694 486.431 61.749 486.881 61.859C487.331 61.959 487.721 62.134 488.051 62.384C488.381 62.634 488.641 62.959 488.831 63.359C489.021 63.749 489.116 64.184 489.116 64.664C489.116 65.574 488.806 66.304 488.186 66.854C487.566 67.394 486.671 67.664 485.501 67.664L489.386 72.674ZM483.446 66.404H485.201C486.081 66.414 486.731 66.284 487.151 66.014C487.571 65.734 487.781 65.294 487.781 64.694C487.781 64.084 487.576 63.644 487.166 63.374C486.756 63.094 486.116 62.954 485.246 62.954H483.446V66.404Z" fill="black"/>
<path d="M70.1818 4.46796H2.92424C1.30677 4.46796 0 5.77473 0 7.3922V74.6498C0 76.2673 1.30677 77.574 2.92424 77.574H70.1818C71.7993 77.574 73.1061 76.2673 73.1061 74.6498V7.3922C73.1061 5.77473 71.7993 4.46796 70.1818 4.46796ZM36.6536 41.5784L19.1081 56.291C18.6329 56.6931 17.911 56.355 17.911 55.7336V50.0039C17.911 49.7937 18.0115 49.5835 18.176 49.4465L28.2098 41.021L18.176 32.5955C18.092 32.5292 18.0244 32.4444 17.9785 32.3477C17.9325 32.2511 17.9094 32.1451 17.911 32.0381V26.3084C17.911 25.687 18.6329 25.3489 19.1081 25.751L36.6536 40.4544C37.01 40.7468 37.01 41.286 36.6536 41.5784ZM55.1951 55.7336C55.1951 56.1357 54.8844 56.4647 54.5097 56.4647H37.6039C37.2293 56.4647 36.9186 56.1357 36.9186 55.7336V51.3472C36.9186 50.9451 37.2293 50.6162 37.6039 50.6162H54.5097C54.8844 50.6162 55.1951 50.9451 55.1951 51.3472V55.7336Z" fill="url(#paint0_radial_29_5987)"/>
<defs>
<radialGradient id="paint0_radial_29_5987" cx="0" cy="0" r="1" gradientUnits="userSpaceOnUse" gradientTransform="translate(58.2118 16.8666) rotate(109.635) scale(64.4554)">
<stop stop-color="#FC5F5F"/>
<stop offset="0.671875" stop-color="#EB6DFF"/>
<stop offset="1" stop-color="#82D2FF"/>
</radialGradient>
</defs>
</svg>
